#Comment line ignore any data following # character 
#Hierarchical Translation and Rotation (.htr) file 
[Header]	
#Header keywords are followed by a single value 
FileType HTR		#Single word string
DataType HTRS		#Translation followed by rotation and scale data
FileVersion 1		#integer
NumSegments 84		#integer
NumFrames 2		#integer
DataFrameRate 30		#integer, data frame rate in this file
EulerRotationOrder ZYX
CalibrationUnits mm
RotationUnits Degrees
GlobalAxisofGravity Y
BoneLengthAxis Y
ScaleFactor 1.00
[SegmentNames&Hierarchy]
#CHILD	PARENT
MASTER GLOBAL
root MASTER
chest root
L_mid_tent01 root
R_mid_tent01 root
spine01 root
Bip01_Neck chest
L_humerus chest
R_humerus chest
weapon_bone chest
Bip01_Head Bip01_Neck
eye_left_bone Bip01_Head
eye_right_bone Bip01_Head
L_forearm L_humerus
L_front_hand L_forearm
L_weapon_bone L_forearm
L_front_hand01_01 L_front_hand
L_front_hand02_01 L_front_hand
L_front_hand03_01 L_front_hand
L_front_hand01_02 L_front_hand01_01
L_front_hand02_02 L_front_hand02_01
L_front_hand03_02 L_front_hand03_01
R_forearm R_humerus
R_front_hand R_forearm
R_weapon_bone R_forearm
R_front_hand01_01 R_front_hand
R_front_hand02_01 R_front_hand
R_front_hand03_01 R_front_hand
R_front_hand01_02 R_front_hand01_01
R_front_hand02_02 R_front_hand02_01
R_front_hand03_02 R_front_hand03_01
null_rope01_connect L_mid_tent01
Rope1_Seg01 null_rope01_connect
Rope1_Seg02 Rope1_Seg01
Rope1_Seg03 Rope1_Seg02
Rope1_Seg04 Rope1_Seg03
Rope1_Seg05 Rope1_Seg04
Rope1_Seg06 Rope1_Seg05
Rope1_Seg07 Rope1_Seg06
Rope1_Seg09 Rope1_Seg07
L_mid_hand01 Rope1_Seg09
L_mid_hand02 Rope1_Seg09
L_mid_hand03 Rope1_Seg09
null_rope02_connect R_mid_tent01
Rope2_Seg01 null_rope02_connect
Rope2_Seg02 Rope2_Seg01
Rope2_Seg03 Rope2_Seg02
Rope2_Seg04 Rope2_Seg03
Rope2_Seg05 Rope2_Seg04
Rope2_Seg06 Rope2_Seg05
Rope2_Seg07 Rope2_Seg06
Rope2_Seg09 Rope2_Seg07
R_mid_hand01 Rope2_Seg09
R_mid_hand02 Rope2_Seg09
R_mid_hand03 Rope2_Seg09
spine02 spine01
spine03 spine02
pelvis spine03
null_rope03_connect pelvis
null_rope04_connect pelvis
Rope3_Seg01 null_rope03_connect
Rope3_Seg02 Rope3_Seg01
Rope3_Seg03 Rope3_Seg02
Rope3_Seg04 Rope3_Seg03
Rope3_Seg05 Rope3_Seg04
Rope3_Seg06 Rope3_Seg05
Rope3_Seg07 Rope3_Seg06
Rope3_Seg08 Rope3_Seg07
Rope3_Seg09 Rope3_Seg08
R_rear_hand01 Rope3_Seg09
R_rear_hand02 Rope3_Seg09
R_rear_hand03 Rope3_Seg09
Rope4_Seg01 null_rope04_connect
Rope4_Seg02 Rope4_Seg01
Rope4_Seg03 Rope4_Seg02
Rope4_Seg04 Rope4_Seg03
Rope4_Seg05 Rope4_Seg04
Rope4_Seg06 Rope4_Seg05
Rope4_Seg07 Rope4_Seg06
Rope4_Seg08 Rope4_Seg07
Rope4_Seg09 Rope4_Seg08
L_rear_hand01 Rope4_Seg09
L_rear_hand02 Rope4_Seg09
L_rear_hand03 Rope4_Seg09
[BasePosition]
#SegmentName Tx, Ty, Tz, Rx, Ry, Rz, BoneLength
MASTER 0.000000 0.000000 0.000000 -90.000000 0.000000 0.000000 10.000000 
root 0.000000 0.000000 0.000000 0.000000 0.000000 0.000000 10.000000 
chest 0.000000 0.000000 0.000000 0.000000 0.000000 0.000000 10.000000 
L_mid_tent01 0.000000 0.000000 0.000000 0.000000 0.000000 0.000000 10.000000 
R_mid_tent01 0.000000 0.000000 0.000000 0.000000 0.000000 0.000000 10.000000 
spine01 0.000000 0.000000 0.000000 0.000000 0.000000 0.000000 10.000000 
Bip01_Neck 0.000000 0.000000 0.000000 0.000000 0.000000 0.000000 10.000000 
L_humerus 0.000000 0.000000 0.000000 0.000000 0.000000 0.000000 10.000000 
R_humerus 0.000000 0.000000 0.000000 0.000000 0.000000 0.000000 10.000000 
weapon_bone 0.000000 0.000000 0.000000 0.000000 0.000000 0.000000 10.000000 
Bip01_Head 0.000000 0.000000 0.000000 0.000000 0.000000 0.000000 10.000000 
eye_left_bone 0.000000 0.000000 0.000000 0.000000 0.000000 0.000000 10.000000 
eye_right_bone 0.000000 0.000000 0.000000 0.000000 0.000000 0.000000 10.000000 
L_forearm 0.000000 0.000000 0.000000 0.000000 0.000000 0.000000 10.000000 
L_front_hand 0.000000 0.000000 0.000000 0.000000 0.000000 0.000000 10.000000 
L_weapon_bone 0.000000 0.000000 0.000000 0.000000 0.000000 0.000000 10.000000 
L_front_hand01_01 0.000000 0.000000 0.000000 0.000000 0.000000 0.000000 10.000000 
L_front_hand02_01 0.000000 0.000000 0.000000 0.000000 0.000000 0.000000 10.000000 
L_front_hand03_01 0.000000 0.000000 0.000000 0.000000 0.000000 0.000000 10.000000 
L_front_hand01_02 0.000000 0.000000 0.000000 0.000000 0.000000 0.000000 10.000000 
L_front_hand02_02 0.000000 0.000000 0.000000 0.000000 0.000000 0.000000 10.000000 
L_front_hand03_02 0.000000 0.000000 0.000000 0.000000 0.000000 0.000000 10.000000 
R_forearm 0.000000 0.000000 0.000000 0.000000 0.000000 0.000000 10.000000 
R_front_hand 0.000000 0.000000 0.000000 0.000000 0.000000 0.000000 10.000000 
R_weapon_bone 0.000000 0.000000 0.000000 0.000000 0.000000 0.000000 10.000000 
R_front_hand01_01 0.000000 0.000000 0.000000 0.000000 0.000000 0.000000 10.000000 
R_front_hand02_01 0.000000 0.000000 0.000000 0.000000 0.000000 0.000000 10.000000 
R_front_hand03_01 0.000000 0.000000 0.000000 0.000000 0.000000 0.000000 10.000000 
R_front_hand01_02 0.000000 0.000000 0.000000 0.000000 0.000000 0.000000 10.000000 
R_front_hand02_02 0.000000 0.000000 0.000000 0.000000 0.000000 0.000000 10.000000 
R_front_hand03_02 0.000000 0.000000 0.000000 0.000000 0.000000 0.000000 10.000000 
null_rope01_connect 0.000000 0.000000 0.000000 0.000000 0.000000 0.000000 10.000000 
Rope1_Seg01 0.000000 0.000000 0.000000 0.000000 0.000000 0.000000 10.000000 
Rope1_Seg02 0.000000 0.000000 0.000000 0.000000 0.000000 0.000000 10.000000 
Rope1_Seg03 0.000000 0.000000 0.000000 0.000000 0.000000 0.000000 10.000000 
Rope1_Seg04 0.000000 0.000000 0.000000 0.000000 0.000000 0.000000 10.000000 
Rope1_Seg05 0.000000 0.000000 0.000000 0.000000 0.000000 0.000000 10.000000 
Rope1_Seg06 0.000000 0.000000 0.000000 0.000000 0.000000 0.000000 10.000000 
Rope1_Seg07 0.000000 0.000000 0.000000 0.000000 0.000000 0.000000 10.000000 
Rope1_Seg09 0.000000 0.000000 0.000000 0.000000 0.000000 0.000000 10.000000 
L_mid_hand01 0.000000 0.000000 0.000000 0.000000 0.000000 0.000000 10.000000 
L_mid_hand02 0.000000 0.000000 0.000000 0.000000 0.000000 0.000000 10.000000 
L_mid_hand03 0.000000 0.000000 0.000000 0.000000 0.000000 0.000000 10.000000 
null_rope02_connect 0.000000 0.000000 0.000000 0.000000 0.000000 0.000000 10.000000 
Rope2_Seg01 0.000000 0.000000 0.000000 0.000000 0.000000 0.000000 10.000000 
Rope2_Seg02 0.000000 0.000000 0.000000 0.000000 0.000000 0.000000 10.000000 
Rope2_Seg03 0.000000 0.000000 0.000000 0.000000 0.000000 0.000000 10.000000 
Rope2_Seg04 0.000000 0.000000 0.000000 0.000000 0.000000 0.000000 10.000000 
Rope2_Seg05 0.000000 0.000000 0.000000 0.000000 0.000000 0.000000 10.000000 
Rope2_Seg06 0.000000 0.000000 0.000000 0.000000 0.000000 0.000000 10.000000 
Rope2_Seg07 0.000000 0.000000 0.000000 0.000000 0.000000 0.000000 10.000000 
Rope2_Seg09 0.000000 0.000000 0.000000 0.000000 0.000000 0.000000 10.000000 
R_mid_hand01 0.000000 0.000000 0.000000 0.000000 0.000000 0.000000 10.000000 
R_mid_hand02 0.000000 0.000000 0.000000 0.000000 0.000000 0.000000 10.000000 
R_mid_hand03 0.000000 0.000000 0.000000 0.000000 0.000000 0.000000 10.000000 
spine02 0.000000 0.000000 0.000000 0.000000 0.000000 0.000000 10.000000 
spine03 0.000000 0.000000 0.000000 0.000000 0.000000 0.000000 10.000000 
pelvis 0.000000 0.000000 0.000000 0.000000 0.000000 0.000000 10.000000 
null_rope03_connect 0.000000 0.000000 0.000000 0.000000 0.000000 0.000000 10.000000 
null_rope04_connect 0.000000 0.000000 0.000000 0.000000 0.000000 0.000000 10.000000 
Rope3_Seg01 0.000000 0.000000 0.000000 0.000000 0.000000 0.000000 10.000000 
Rope3_Seg02 0.000000 0.000000 0.000000 0.000000 0.000000 0.000000 10.000000 
Rope3_Seg03 0.000000 0.000000 0.000000 0.000000 0.000000 0.000000 10.000000 
Rope3_Seg04 0.000000 0.000000 0.000000 0.000000 0.000000 0.000000 10.000000 
Rope3_Seg05 0.000000 0.000000 0.000000 0.000000 0.000000 0.000000 10.000000 
Rope3_Seg06 0.000000 0.000000 0.000000 0.000000 0.000000 0.000000 10.000000 
Rope3_Seg07 0.000000 0.000000 0.000000 0.000000 0.000000 0.000000 10.000000 
Rope3_Seg08 0.000000 0.000000 0.000000 0.000000 0.000000 0.000000 10.000000 
Rope3_Seg09 0.000000 0.000000 0.000000 0.000000 0.000000 0.000000 10.000000 
R_rear_hand01 0.000000 0.000000 0.000000 0.000000 0.000000 0.000000 10.000000 
R_rear_hand02 0.000000 0.000000 0.000000 0.000000 0.000000 0.000000 10.000000 
R_rear_hand03 0.000000 0.000000 0.000000 0.000000 0.000000 0.000000 10.000000 
Rope4_Seg01 0.000000 0.000000 0.000000 0.000000 0.000000 0.000000 10.000000 
Rope4_Seg02 0.000000 0.000000 0.000000 0.000000 0.000000 0.000000 10.000000 
Rope4_Seg03 0.000000 0.000000 0.000000 0.000000 0.000000 0.000000 10.000000 
Rope4_Seg04 0.000000 0.000000 0.000000 0.000000 0.000000 0.000000 10.000000 
Rope4_Seg05 0.000000 0.000000 0.000000 0.000000 0.000000 0.000000 10.000000 
Rope4_Seg06 0.000000 0.000000 0.000000 0.000000 0.000000 0.000000 10.000000 
Rope4_Seg07 0.000000 0.000000 0.000000 0.000000 0.000000 0.000000 10.000000 
Rope4_Seg08 0.000000 0.000000 0.000000 0.000000 0.000000 0.000000 10.000000 
Rope4_Seg09 0.000000 0.000000 0.000000 0.000000 0.000000 0.000000 10.000000 
L_rear_hand01 0.000000 0.000000 0.000000 0.000000 0.000000 0.000000 10.000000 
L_rear_hand02 0.000000 0.000000 0.000000 0.000000 0.000000 0.000000 10.000000 
L_rear_hand03 0.000000 0.000000 0.000000 0.000000 0.000000 0.000000 10.000000 
#Beginning of Data. Separated by tabs
#Fr	Tx	Ty	Tz	Rx	Ry	Rz	SF
[MASTER]
57 2445.458008 2790.114502 1838.691895 0.001660 0.001660 0.001660 4140.747559
58 2444.913574 2790.114502 1836.861328 0.001660 0.001660 0.001660 4139.613281
[root]
57 100.958420 -51.398621 303.037598 -11.168432 3.219373 -113.124275 323.521545
58 99.716980 -51.398621 302.026978 -11.056722 3.200344 -113.094933 322.188782
[chest]
57 -84.512650 -34.090519 0.000000 22.949766 10.671890 158.995926 91.129311
58 -84.512650 -34.090519 0.000000 23.172224 10.650622 159.196304 91.129311
[L_mid_tent01]
57 27.298981 22.179192 -249.918701 2.626237 20.227411 86.097572 252.381683
58 27.298979 22.179193 -249.918701 2.544126 20.234688 85.856796 252.381683
[R_mid_tent01]
57 23.228794 24.509907 226.238495 172.605072 -18.070196 71.705727 228.744751
58 23.228794 24.509907 226.238495 172.522705 -18.156557 71.621292 228.744751
[spine01]
57 -0.361383 -0.195265 0.000000 0.001922 0.001348 19.914165 0.410763
58 -0.361383 -0.195265 0.000000 0.001921 0.001348 19.889059 0.410763
[Bip01_Neck]
57 165.484543 71.581718 0.000119 176.643677 -1.657967 43.431911 180.302734
58 165.484543 71.581718 0.000119 176.643677 -1.657967 43.431911 180.302734
[L_humerus]
57 -13.983130 -135.272980 -120.471481 14.110679 58.077442 128.944366 181.680161
58 -13.983130 -135.272980 -120.471481 14.415089 58.411568 129.085144 181.680161
[R_humerus]
57 -13.983309 -135.273102 125.287651 -164.077209 -75.788147 -101.304550 184.909012
58 -13.983309 -135.273102 125.287651 -164.287262 -75.622833 -101.084808 184.909012
[weapon_bone]
57 235.964890 -300.705902 0.000000 0.000000 -89.951546 -128.212341 382.234833
58 235.964890 -300.705902 0.000000 0.000000 -89.951546 -128.212341 382.234833
[Bip01_Head]
57 201.027664 166.803619 49.229046 78.136925 38.518360 -13.657246 265.817749
58 201.027664 166.803619 49.229042 78.136925 38.518360 -13.657246 265.817719
[eye_left_bone]
57 -24.626970 125.451866 -64.772606 0.000000 -90.000000 -99.840431 143.318359
58 -24.626970 125.451866 -64.772606 0.000000 -90.000000 -99.840431 143.318359
[eye_right_bone]
57 -24.626970 125.451866 64.327362 0.000000 -89.965736 80.156380 143.117676
58 -24.626970 125.451866 64.327362 0.000000 -89.965736 80.156380 143.117676
[L_forearm]
57 322.776093 0.000000 -0.000119 0.000040 -0.002347 -91.962654 322.776093
58 322.776093 0.000000 -0.000119 0.000047 -0.002347 -92.318672 322.776093
[L_front_hand]
57 241.149185 -0.042021 -3.300071 60.145355 -2.204066 -5.138964 241.171753
58 241.149185 -0.042021 -3.300071 60.145355 -2.204067 -5.138964 241.171753
[L_weapon_bone]
57 156.183838 0.000000 0.000000 0.000014 0.000007 0.000001 156.183838
58 156.183838 0.000000 0.000000 0.000014 0.000007 0.000001 156.183838
[L_front_hand01_01]
57 86.095154 20.947098 -0.655860 -0.366594 -0.477154 75.385582 88.609184
58 86.095154 20.947098 -0.655860 -0.366594 -0.477154 75.385574 88.609184
[L_front_hand02_01]
57 86.935165 -11.437475 24.513514 154.399796 -59.883835 -61.369587 91.046425
58 86.935165 -11.437475 24.513514 154.399796 -59.883835 -61.369587 91.046425
[L_front_hand03_01]
57 86.637497 -14.123976 -20.424902 -153.913849 58.118122 -62.702866 90.126129
58 86.637497 -14.123976 -20.424902 -153.913849 58.118122 -62.702866 90.126129
[L_front_hand01_02]
57 71.020905 -0.000179 0.000030 0.000334 -0.002323 -106.379684 71.020905
58 71.020905 -0.000179 0.000030 0.000334 -0.002323 -106.379684 71.020905
[L_front_hand02_02]
57 71.020927 -0.000119 0.000060 0.000334 -0.002323 -106.379684 71.020927
58 71.020927 -0.000119 0.000060 0.000334 -0.002323 -106.379684 71.020927
[L_front_hand03_02]
57 71.020905 -0.000060 0.000060 0.000334 -0.002323 -106.379684 71.020905
58 71.020905 -0.000060 0.000060 0.000334 -0.002323 -106.379684 71.020905
[R_forearm]
57 322.776428 -0.000060 0.000030 0.201281 0.067654 -109.480934 322.776428
58 322.776428 -0.000060 0.000030 0.201306 0.067580 -109.439156 322.776428
[R_front_hand]
57 238.847015 -0.006795 2.210259 -2.635298 -10.645461 -26.312506 238.857239
58 238.847015 -0.006795 2.210259 -2.635298 -10.645461 -26.312506 238.857239
[R_weapon_bone]
57 155.664093 0.002503 -0.000030 0.003487 0.001180 -90.988930 155.664078
58 155.664093 0.002503 -0.000030 0.003487 0.001180 -90.988930 155.664078
[R_front_hand01_01]
57 87.624611 14.231146 22.918642 -154.633499 -59.950615 61.746044 91.683487
58 87.624611 14.231146 22.918642 -154.633499 -59.950619 61.746044 91.683487
[R_front_hand02_01]
57 89.356956 14.367283 -19.491137 154.602661 58.302856 63.744389 92.579636
58 89.356956 14.367283 -19.491137 154.602661 58.302849 63.744389 92.579636
[R_front_hand03_01]
57 87.286232 -22.307278 -0.143439 0.162155 -0.423168 -75.767906 90.091743
58 87.286232 -22.307278 -0.143439 0.162155 -0.423168 -75.767921 90.091743
[R_front_hand01_02]
57 71.020905 0.000060 0.000119 0.002323 -0.000334 106.381714 71.020905
58 71.020905 0.000060 0.000119 0.002323 -0.000334 106.381714 71.020905
[R_front_hand02_02]
57 71.020844 -0.000030 -0.000119 0.002323 -0.000334 106.381714 71.020836
58 71.020844 -0.000030 -0.000119 0.002323 -0.000334 106.381714 71.020836
[R_front_hand03_02]
57 71.020905 0.000000 0.000030 0.002323 -0.000334 106.381714 71.020905
58 71.020905 0.000000 0.000030 0.002323 -0.000334 106.381714 71.020905
[null_rope01_connect]
57 328.732483 0.000000 -0.000238 -20.100784 -25.404978 31.578690 328.732483
58 328.732483 0.000000 -0.000238 -20.024719 -25.333479 31.752630 328.732483
[Rope1_Seg01]
57 -0.000021 -0.000188 0.000067 -21.437243 41.646896 152.485291 0.000200
58 -0.000022 -0.000190 0.000066 -21.494741 41.920540 152.499466 0.000203
[Rope1_Seg02]
57 139.999863 -0.000179 0.000000 -11.904924 28.306126 -20.487329 139.999863
58 139.999863 -0.000179 0.000000 -11.394109 27.718784 -20.068586 139.999863
[Rope1_Seg03]
57 139.999924 0.000060 -0.000060 -42.862461 28.903374 -14.564629 139.999924
58 139.999924 0.000060 -0.000060 -43.699841 29.427559 -15.291532 139.999924
[Rope1_Seg04]
57 139.999924 -0.000060 -0.000119 -41.805470 12.443650 3.658509 139.999924
58 139.999924 -0.000060 -0.000119 -44.208454 13.009073 3.864839 139.999924
[Rope1_Seg05]
57 139.999832 0.000119 -0.000060 -24.311285 5.829519 5.810588 139.999832
58 139.999832 0.000119 -0.000060 -23.647547 5.513295 6.135816 139.999832
[Rope1_Seg06]
57 139.999954 0.000119 -0.000060 -29.068886 7.590007 13.266163 139.999954
58 139.999954 0.000119 -0.000060 -27.213034 6.851427 13.200302 139.999954
[Rope1_Seg07]
57 139.999985 0.000060 0.000000 -15.905003 -0.402592 21.775669 139.999985
58 139.999985 0.000060 0.000000 -15.473138 -0.522850 21.517694 139.999985
[Rope1_Seg09]
57 121.602913 0.000119 -0.000089 -89.793175 -1.359789 0.847147 121.602913
58 121.602913 0.000119 -0.000089 -89.793175 -1.359789 0.847147 121.602913
[L_mid_hand01]
57 103.859421 1.038730 8.195221 130.544357 -67.584518 -38.866943 104.187431
58 103.859421 1.038730 8.195221 130.544373 -67.584534 -38.866943 104.187431
[L_mid_hand02]
57 105.572853 -4.139662 -10.864139 -168.923172 43.409309 -73.498894 106.211075
58 105.572853 -4.139662 -10.864139 -168.923172 43.409309 -73.498894 106.211075
[L_mid_hand03]
57 104.641464 17.579376 -3.913581 -6.012625 17.808174 74.893669 106.179977
58 104.641464 17.579376 -3.913581 -6.012626 17.808172 74.893661 106.179977
[null_rope02_connect]
57 328.732849 0.000179 -0.000119 -169.872574 0.292229 -41.430592 328.732849
58 328.732849 0.000179 -0.000119 -169.690643 0.225562 -41.516582 328.732849
[Rope2_Seg01]
57 0.000025 0.000238 0.000000 -25.413906 -75.654335 -170.060730 0.000239
58 0.000025 0.000240 0.000000 -23.627342 -75.582001 -171.948135 0.000241
[Rope2_Seg02]
57 139.999741 -0.000060 -0.000119 -0.538716 -4.960052 -40.316967 139.999756
58 139.999741 -0.000060 -0.000119 -0.114367 -5.125695 -41.499908 139.999756
[Rope2_Seg03]
57 140.000107 0.000030 0.000000 8.178062 -3.381627 -42.284363 140.000107
58 140.000107 0.000030 0.000000 8.192039 -3.570962 -40.901169 140.000107
[Rope2_Seg04]
57 139.999802 0.000000 -0.000060 4.475271 -2.893208 -13.839203 139.999802
58 139.999802 0.000000 -0.000060 4.158645 -2.826968 -13.004378 139.999802
[Rope2_Seg05]
57 139.999985 -0.000060 0.000119 1.356338 -1.418976 -3.949955 139.999985
58 139.999985 -0.000060 0.000119 1.330733 -1.367804 -3.957257 139.999985
[Rope2_Seg06]
57 139.999893 -0.000030 -0.000119 0.529733 -1.069854 -1.462374 139.999893
58 139.999893 -0.000030 -0.000119 0.618754 -1.027407 -1.794399 139.999893
[Rope2_Seg07]
57 139.999893 0.000060 -0.000060 0.865387 -1.344910 -2.494978 139.999893
58 139.999893 0.000060 -0.000060 0.959344 -1.320445 -2.819102 139.999893
[Rope2_Seg09]
57 121.338966 0.000089 -0.000060 33.793236 -1.359788 -0.847141 121.338966
58 121.338966 0.000089 -0.000060 33.793236 -1.359788 -0.847141 121.338966
[R_mid_hand01]
57 104.680779 11.144459 -10.335981 -16.212063 45.237247 70.462852 105.778534
58 104.680779 11.144459 -10.335981 -16.212063 45.237247 70.462852 105.778534
[R_mid_hand02]
57 104.070427 2.443552 8.231699 49.067368 -67.749771 39.286453 104.424065
58 104.070427 2.443552 8.231699 49.067368 -67.749771 39.286453 104.424065
[R_mid_hand03]
57 106.028137 -11.221827 -5.996406 -177.101105 15.551026 -76.585571 106.788818
58 106.028137 -11.221827 -5.996406 -177.101105 15.551026 -76.585571 106.788818
[spine02]
57 129.756927 0.001550 0.000119 0.501085 -4.028707 -14.937144 129.756927
58 129.756927 0.001550 0.000119 0.497063 -4.029221 -14.878619 129.756927
[spine03]
57 78.614136 0.081482 -4.899018 1.979608 3.791847 17.730272 78.766678
58 78.614136 0.081482 -4.899019 1.977593 3.793067 17.696671 78.766678
[pelvis]
57 169.435242 0.051022 0.000000 -0.009717 -0.191330 -0.961583 169.435257
58 169.435242 0.051022 0.000000 -0.008444 -0.191356 -1.353594 169.435257
[null_rope03_connect]
57 -1.257226 -2.466202 137.391083 -6.959860 -7.793422 91.589134 137.418976
58 -1.257226 -2.466202 137.391083 -6.900126 -7.708255 91.970291 137.418976
[null_rope04_connect]
57 -1.259640 -2.480268 -137.844437 -6.959860 -7.793422 91.589134 137.872513
58 -1.259640 -2.480268 -137.844437 -6.900126 -7.708255 91.970291 137.872513
[Rope3_Seg01]
57 -0.000030 -0.000188 0.000000 46.500256 -56.238056 -104.353775 0.000190
58 -0.000030 -0.000190 0.000000 47.148998 -55.949348 -105.243546 0.000193
[Rope3_Seg02]
57 139.999924 -0.000119 0.000060 2.947180 0.024515 13.186282 139.999924
58 139.999924 -0.000119 0.000060 3.153665 -0.058801 13.897140 139.999924
[Rope3_Seg03]
57 139.999924 -0.000119 0.000119 1.501826 4.733753 38.460232 139.999924
58 139.999924 -0.000119 0.000119 1.446368 4.638038 38.670097 139.999924
[Rope3_Seg04]
57 139.999924 0.000119 0.000000 -23.936039 -1.050356 44.635807 139.999924
58 139.999924 0.000119 0.000000 -22.637228 -1.298540 43.044125 139.999924
[Rope3_Seg05]
57 139.999924 -0.000238 0.000060 -8.604623 -7.462582 2.472472 139.999924
58 139.999924 -0.000238 0.000060 -9.247262 -7.520262 3.495036 139.999924
[Rope3_Seg06]
57 139.999893 -0.000119 -0.000060 -3.093901 -2.556743 1.832540 139.999893
58 139.999893 -0.000119 -0.000060 -3.269822 -2.617318 2.046183 139.999893
[Rope3_Seg07]
57 139.999771 0.000060 -0.000119 -1.555637 -1.542384 1.039141 139.999771
58 139.999771 0.000060 -0.000119 -1.669006 -1.591661 1.153946 139.999771
[Rope3_Seg08]
57 139.999985 -0.000060 0.000000 -0.646824 -0.901179 0.575531 139.999985
58 139.999985 -0.000060 0.000000 -0.715736 -0.934096 0.635633 139.999985
[Rope3_Seg09]
57 90.185997 -0.000179 -0.000060 89.793228 -1.359877 -0.847183 90.185997
58 90.185997 -0.000179 -0.000060 89.793228 -1.359877 -0.847183 90.185997
[R_rear_hand01]
57 103.366196 -6.073594 -10.757982 -177.714203 24.565960 -73.910950 104.101845
58 103.366196 -6.073594 -10.757982 -177.714203 24.565960 -73.910950 104.101845
[R_rear_hand02]
57 100.509819 12.039542 -7.992327 -12.874829 36.868488 72.167213 101.543350
58 100.509819 12.039542 -7.992327 -12.874829 36.868488 72.167213 101.543350
[R_rear_hand03]
57 101.539970 5.215704 5.435467 71.484581 -71.816628 21.513813 101.819031
58 101.539970 5.215704 5.435467 71.484581 -71.816628 21.513813 101.819031
[Rope4_Seg01]
57 0.000010 0.000038 -0.000114 -96.906715 65.672485 -89.836792 0.000121
58 0.000010 0.000038 -0.000114 -96.093979 65.486992 -88.956985 0.000121
[Rope4_Seg02]
57 139.999985 0.000060 0.000119 -1.242446 -8.736980 4.769739 139.999985
58 139.999985 0.000060 0.000119 -1.192468 -8.753632 4.809982 139.999985
[Rope4_Seg03]
57 139.999924 0.000000 -0.000238 -0.696365 -16.304945 8.773239 139.999924
58 139.999924 0.000000 -0.000238 -0.604478 -16.347641 8.877672 139.999924
[Rope4_Seg04]
57 139.999985 0.000000 0.000119 3.563888 -27.500149 20.839565 139.999985
58 139.999985 0.000000 0.000119 3.721643 -27.449129 21.161606 139.999985
[Rope4_Seg05]
57 139.999802 -0.000060 -0.000119 9.319288 -19.506609 12.917423 139.999802
58 139.999802 -0.000060 -0.000119 9.311640 -19.360741 12.834717 139.999802
[Rope4_Seg06]
57 139.999924 0.000000 0.000060 2.492914 -10.648056 -2.208157 139.999924
58 139.999924 0.000000 0.000060 2.493152 -10.760716 -2.290344 139.999924
[Rope4_Seg07]
57 139.999802 0.000000 0.000000 3.144304 -7.154793 -0.510574 139.999802
58 139.999802 0.000000 0.000000 3.279075 -7.154447 -0.393420 139.999802
[Rope4_Seg08]
57 139.999924 0.000000 0.000119 2.066143 -4.037402 1.011148 139.999924
58 139.999924 0.000000 0.000119 2.091962 -4.011670 1.033802 139.999924
[Rope4_Seg09]
57 90.185791 0.000060 0.000060 -135.617828 2.228885 0.850567 90.185791
58 90.185791 0.000060 0.000060 -135.617828 2.228885 0.850567 90.185791
[L_rear_hand01]
57 101.696655 -8.392275 -7.654577 -12.874829 -36.868488 107.832764 102.329041
58 101.696655 -8.392275 -7.654577 -12.874827 -36.868492 107.832764 102.329041
[L_rear_hand02]
57 102.726799 -1.568258 5.773216 71.484581 71.816628 158.486160 102.900848
58 102.726799 -1.568258 5.773216 71.484573 71.816597 158.486160 102.900848
[L_rear_hand03]
57 104.552910 9.721220 -10.420293 -177.714203 -24.565960 -106.089035 105.519653
58 104.552910 9.721220 -10.420293 -177.714203 -24.565960 -106.089035 105.519653
